<?xml version="1.0" encoding="UTF-8" standalone="no"?>
<!DOCTYPE svg PUBLIC "-//W3C//DTD SVG 1.1//EN"
 "http://www.w3.org/Graphics/SVG/1.1/DTD/svg11.dtd">
<!-- Generated by graphviz version 2.43.0 (0)
 -->
<!-- Title: %3 Pages: 1 -->
<svg width="1830pt" height="476pt"
 viewBox="0.00 0.00 1830.49 476.00" xmlns="http://www.w3.org/2000/svg" xmlns:xlink="http://www.w3.org/1999/xlink">
<g id="graph0" class="graph" transform="scale(1 1) rotate(0) translate(4 472)">
<title>%3</title>
<polygon fill="white" stroke="transparent" points="-4,4 -4,-472 1826.49,-472 1826.49,4 -4,4"/>
<!-- [root] data.google_compute_image.debian (expand) -->
<g id="node1" class="node">
<title>[root] data.google_compute_image.debian (expand)</title>
<polygon fill="none" stroke="black" points="774.5,-252 560.5,-252 560.5,-216 774.5,-216 774.5,-252"/>
<text text-anchor="middle" x="667.5" y="-230.3" font-family="Times,serif" font-size="14.00">data.google_compute_image.debian</text>
</g>
<!-- [root] provider[&quot;registry.terraform.io/hashicorp/google&quot;] -->
<g id="node14" class="node">
<title>[root] provider[&quot;registry.terraform.io/hashicorp/google&quot;]</title>
<polygon fill="none" stroke="black" points="844.5,-108 577.89,-90 844.5,-72 1111.11,-90 844.5,-108"/>
<text text-anchor="middle" x="844.5" y="-86.3" font-family="Times,serif" font-size="14.00">provider[&quot;registry.terraform.io/hashicorp/google&quot;]</text>
</g>
<!-- [root] data.google_compute_image.debian (expand)&#45;&gt;[root] provider[&quot;registry.terraform.io/hashicorp/google&quot;] -->
<g id="edge1" class="edge">
<title>[root] data.google_compute_image.debian (expand)&#45;&gt;[root] provider[&quot;registry.terraform.io/hashicorp/google&quot;]</title>
<path fill="none" stroke="black" d="M691.1,-215.91C705.04,-205.68 722.94,-192.32 738.5,-180 766.23,-158.04 797.11,-131.91 818.36,-113.66"/>
<polygon fill="black" stroke="black" points="820.71,-116.26 826,-107.08 816.14,-110.96 820.71,-116.26"/>
</g>
<!-- [root] google_compute_address.static_public_ip_eu (expand) -->
<g id="node2" class="node">
<title>[root] google_compute_address.static_public_ip_eu (expand)</title>
<polygon fill="none" stroke="black" points="729.5,-180 465.5,-180 465.5,-144 729.5,-144 729.5,-180"/>
<text text-anchor="middle" x="597.5" y="-158.3" font-family="Times,serif" font-size="14.00">google_compute_address.static_public_ip_eu</text>
</g>
<!-- [root] google_compute_address.static_public_ip_eu (expand)&#45;&gt;[root] provider[&quot;registry.terraform.io/hashicorp/google&quot;] -->
<g id="edge2" class="edge">
<title>[root] google_compute_address.static_public_ip_eu (expand)&#45;&gt;[root] provider[&quot;registry.terraform.io/hashicorp/google&quot;]</title>
<path fill="none" stroke="black" d="M657.61,-143.97C696.54,-132.93 747,-118.63 785.68,-107.67"/>
<polygon fill="black" stroke="black" points="787.08,-110.91 795.75,-104.82 785.17,-104.18 787.08,-110.91"/>
</g>
<!-- [root] google_compute_address.static_public_ip_us (expand) -->
<g id="node3" class="node">
<title>[root] google_compute_address.static_public_ip_us (expand)</title>
<polygon fill="none" stroke="black" points="1059,-180 796,-180 796,-144 1059,-144 1059,-180"/>
<text text-anchor="middle" x="927.5" y="-158.3" font-family="Times,serif" font-size="14.00">google_compute_address.static_public_ip_us</text>
</g>
<!-- [root] google_compute_address.static_public_ip_us (expand)&#45;&gt;[root] provider[&quot;registry.terraform.io/hashicorp/google&quot;] -->
<g id="edge3" class="edge">
<title>[root] google_compute_address.static_public_ip_us (expand)&#45;&gt;[root] provider[&quot;registry.terraform.io/hashicorp/google&quot;]</title>
<path fill="none" stroke="black" d="M906.98,-143.7C896.14,-134.55 882.7,-123.22 871.07,-113.41"/>
<polygon fill="black" stroke="black" points="873.26,-110.68 863.36,-106.91 868.75,-116.03 873.26,-110.68"/>
</g>
<!-- [root] google_compute_firewall.proxy_firewall (expand) -->
<g id="node4" class="node">
<title>[root] google_compute_firewall.proxy_firewall (expand)</title>
<polygon fill="none" stroke="black" points="483.5,-324 243.5,-324 243.5,-288 483.5,-288 483.5,-324"/>
<text text-anchor="middle" x="363.5" y="-302.3" font-family="Times,serif" font-size="14.00">google_compute_firewall.proxy_firewall</text>
</g>
<!-- [root] google_compute_network.vpc (expand) -->
<g id="node8" class="node">
<title>[root] google_compute_network.vpc (expand)</title>
<polygon fill="none" stroke="black" points="428.5,-180 246.5,-180 246.5,-144 428.5,-144 428.5,-180"/>
<text text-anchor="middle" x="337.5" y="-158.3" font-family="Times,serif" font-size="14.00">google_compute_network.vpc</text>
</g>
<!-- [root] google_compute_firewall.proxy_firewall (expand)&#45;&gt;[root] google_compute_network.vpc (expand) -->
<g id="edge4" class="edge">
<title>[root] google_compute_firewall.proxy_firewall (expand)&#45;&gt;[root] google_compute_network.vpc (expand)</title>
<path fill="none" stroke="black" d="M251.29,-287.94C211.45,-279.41 173.49,-267.54 161.5,-252 133.54,-215.76 182.77,-193.1 236.2,-179.72"/>
<polygon fill="black" stroke="black" points="237.3,-183.05 246.21,-177.33 235.67,-176.25 237.3,-183.05"/>
</g>
<!-- [root] google_compute_firewall.web_rules (expand) -->
<g id="node5" class="node">
<title>[root] google_compute_firewall.web_rules (expand)</title>
<polygon fill="none" stroke="black" points="215,-324 0,-324 0,-288 215,-288 215,-324"/>
<text text-anchor="middle" x="107.5" y="-302.3" font-family="Times,serif" font-size="14.00">google_compute_firewall.web_rules</text>
</g>
<!-- [root] google_compute_firewall.web_rules (expand)&#45;&gt;[root] google_compute_network.vpc (expand) -->
<g id="edge5" class="edge">
<title>[root] google_compute_firewall.web_rules (expand)&#45;&gt;[root] google_compute_network.vpc (expand)</title>
<path fill="none" stroke="black" d="M111.03,-287.97C116.08,-267.85 127.33,-234.76 149.5,-216 173.91,-195.34 205.84,-182.71 236.45,-175"/>
<polygon fill="black" stroke="black" points="237.4,-178.37 246.33,-172.66 235.79,-171.56 237.4,-178.37"/>
</g>
<!-- [root] google_compute_instance.proxy_instance_eu (expand) -->
<g id="node6" class="node">
<title>[root] google_compute_instance.proxy_instance_eu (expand)</title>
<polygon fill="none" stroke="black" points="770.5,-324 506.5,-324 506.5,-288 770.5,-288 770.5,-324"/>
<text text-anchor="middle" x="638.5" y="-302.3" font-family="Times,serif" font-size="14.00">google_compute_instance.proxy_instance_eu</text>
</g>
<!-- [root] google_compute_instance.proxy_instance_eu (expand)&#45;&gt;[root] data.google_compute_image.debian (expand) -->
<g id="edge6" class="edge">
<title>[root] google_compute_instance.proxy_instance_eu (expand)&#45;&gt;[root] data.google_compute_image.debian (expand)</title>
<path fill="none" stroke="black" d="M645.67,-287.7C648.93,-279.81 652.87,-270.3 656.5,-261.55"/>
<polygon fill="black" stroke="black" points="659.82,-262.68 660.41,-252.1 653.35,-260 659.82,-262.68"/>
</g>
<!-- [root] google_compute_instance.proxy_instance_eu (expand)&#45;&gt;[root] google_compute_address.static_public_ip_eu (expand) -->
<g id="edge7" class="edge">
<title>[root] google_compute_instance.proxy_instance_eu (expand)&#45;&gt;[root] google_compute_address.static_public_ip_eu (expand)</title>
<path fill="none" stroke="black" d="M591.98,-287.85C576.25,-279.56 560.42,-267.88 551.5,-252 543.66,-238.05 545.9,-230.99 551.5,-216 555.38,-205.62 562.3,-195.93 569.62,-187.74"/>
<polygon fill="black" stroke="black" points="572.28,-190.03 576.68,-180.38 567.23,-185.18 572.28,-190.03"/>
</g>
<!-- [root] google_compute_subnetwork.proxy_instance_subnetwork (expand) -->
<g id="node10" class="node">
<title>[root] google_compute_subnetwork.proxy_instance_subnetwork (expand)</title>
<polygon fill="none" stroke="black" points="504,-252 171,-252 171,-216 504,-216 504,-252"/>
<text text-anchor="middle" x="337.5" y="-230.3" font-family="Times,serif" font-size="14.00">google_compute_subnetwork.proxy_instance_subnetwork</text>
</g>
<!-- [root] google_compute_instance.proxy_instance_eu (expand)&#45;&gt;[root] google_compute_subnetwork.proxy_instance_subnetwork (expand) -->
<g id="edge8" class="edge">
<title>[root] google_compute_instance.proxy_instance_eu (expand)&#45;&gt;[root] google_compute_subnetwork.proxy_instance_subnetwork (expand)</title>
<path fill="none" stroke="black" d="M565.25,-287.97C521.56,-277.8 465.95,-264.87 420.62,-254.33"/>
<polygon fill="black" stroke="black" points="421.35,-250.91 410.82,-252.05 419.76,-257.72 421.35,-250.91"/>
</g>
<!-- [root] google_compute_instance.wordpress_instance_us (expand) -->
<g id="node7" class="node">
<title>[root] google_compute_instance.wordpress_instance_us (expand)</title>
<polygon fill="none" stroke="black" points="1079,-324 792,-324 792,-288 1079,-288 1079,-324"/>
<text text-anchor="middle" x="935.5" y="-302.3" font-family="Times,serif" font-size="14.00">google_compute_instance.wordpress_instance_us</text>
</g>
<!-- [root] google_compute_instance.wordpress_instance_us (expand)&#45;&gt;[root] data.google_compute_image.debian (expand) -->
<g id="edge9" class="edge">
<title>[root] google_compute_instance.wordpress_instance_us (expand)&#45;&gt;[root] data.google_compute_image.debian (expand)</title>
<path fill="none" stroke="black" d="M870.28,-287.97C831.78,-277.91 782.88,-265.14 742.75,-254.65"/>
<polygon fill="black" stroke="black" points="743.57,-251.25 733.01,-252.11 741.8,-258.02 743.57,-251.25"/>
</g>
<!-- [root] google_compute_instance.wordpress_instance_us (expand)&#45;&gt;[root] google_compute_address.static_public_ip_us (expand) -->
<g id="edge10" class="edge">
<title>[root] google_compute_instance.wordpress_instance_us (expand)&#45;&gt;[root] google_compute_address.static_public_ip_us (expand)</title>
<path fill="none" stroke="black" d="M1058.44,-287.93C1112.93,-274.98 1158.99,-252.89 1130.5,-216 1119.46,-201.71 1086.53,-190.54 1050.31,-182.22"/>
<polygon fill="black" stroke="black" points="1051.06,-178.8 1040.54,-180.05 1049.55,-185.63 1051.06,-178.8"/>
</g>
<!-- [root] google_compute_subnetwork.main_instance_subnetwork (expand) -->
<g id="node9" class="node">
<title>[root] google_compute_subnetwork.main_instance_subnetwork (expand)</title>
<polygon fill="none" stroke="black" points="1121,-252 792,-252 792,-216 1121,-216 1121,-252"/>
<text text-anchor="middle" x="956.5" y="-230.3" font-family="Times,serif" font-size="14.00">google_compute_subnetwork.main_instance_subnetwork</text>
</g>
<!-- [root] google_compute_instance.wordpress_instance_us (expand)&#45;&gt;[root] google_compute_subnetwork.main_instance_subnetwork (expand) -->
<g id="edge11" class="edge">
<title>[root] google_compute_instance.wordpress_instance_us (expand)&#45;&gt;[root] google_compute_subnetwork.main_instance_subnetwork (expand)</title>
<path fill="none" stroke="black" d="M940.69,-287.7C943.03,-279.9 945.85,-270.51 948.45,-261.83"/>
<polygon fill="black" stroke="black" points="951.85,-262.69 951.37,-252.1 945.14,-260.68 951.85,-262.69"/>
</g>
<!-- [root] google_compute_network.vpc (expand)&#45;&gt;[root] provider[&quot;registry.terraform.io/hashicorp/google&quot;] -->
<g id="edge12" class="edge">
<title>[root] google_compute_network.vpc (expand)&#45;&gt;[root] provider[&quot;registry.terraform.io/hashicorp/google&quot;]</title>
<path fill="none" stroke="black" d="M428.77,-147.9C438.14,-146.58 447.51,-145.26 456.5,-144 556.7,-130 671.52,-114.37 750.11,-103.73"/>
<polygon fill="black" stroke="black" points="751.03,-107.14 760.47,-102.33 750.09,-100.2 751.03,-107.14"/>
</g>
<!-- [root] google_compute_subnetwork.main_instance_subnetwork (expand)&#45;&gt;[root] google_compute_network.vpc (expand) -->
<g id="edge13" class="edge">
<title>[root] google_compute_subnetwork.main_instance_subnetwork (expand)&#45;&gt;[root] google_compute_network.vpc (expand)</title>
<path fill="none" stroke="black" d="M791.74,-216.19C671.63,-203.81 519.36,-187.82 456.5,-180 450.73,-179.28 444.8,-178.52 438.83,-177.73"/>
<polygon fill="black" stroke="black" points="439.11,-174.24 428.74,-176.38 438.18,-181.17 439.11,-174.24"/>
</g>
<!-- [root] google_compute_subnetwork.proxy_instance_subnetwork (expand)&#45;&gt;[root] google_compute_network.vpc (expand) -->
<g id="edge14" class="edge">
<title>[root] google_compute_subnetwork.proxy_instance_subnetwork (expand)&#45;&gt;[root] google_compute_network.vpc (expand)</title>
<path fill="none" stroke="black" d="M337.5,-215.7C337.5,-207.98 337.5,-198.71 337.5,-190.11"/>
<polygon fill="black" stroke="black" points="341,-190.1 337.5,-180.1 334,-190.1 341,-190.1"/>
</g>
<!-- [root] google_project_service.name (expand) -->
<g id="node11" class="node">
<title>[root] google_project_service.name (expand)</title>
<polygon fill="none" stroke="black" points="1255.5,-180 1079.5,-180 1079.5,-144 1255.5,-144 1255.5,-180"/>
<text text-anchor="middle" x="1167.5" y="-158.3" font-family="Times,serif" font-size="14.00">google_project_service.name</text>
</g>
<!-- [root] google_project_service.name (expand)&#45;&gt;[root] provider[&quot;registry.terraform.io/hashicorp/google&quot;] -->
<g id="edge15" class="edge">
<title>[root] google_project_service.name (expand)&#45;&gt;[root] provider[&quot;registry.terraform.io/hashicorp/google&quot;]</title>
<path fill="none" stroke="black" d="M1088.9,-143.97C1035.59,-132.41 965.75,-117.28 914.39,-106.15"/>
<polygon fill="black" stroke="black" points="914.88,-102.67 904.37,-103.98 913.4,-109.51 914.88,-102.67"/>
</g>
<!-- [root] google_sql_database.cloud_sql (expand) -->
<g id="node12" class="node">
<title>[root] google_sql_database.cloud_sql (expand)</title>
<polygon fill="none" stroke="black" points="1399,-324 1214,-324 1214,-288 1399,-288 1399,-324"/>
<text text-anchor="middle" x="1306.5" y="-302.3" font-family="Times,serif" font-size="14.00">google_sql_database.cloud_sql</text>
</g>
<!-- [root] google_sql_database_instance.db_instance (expand) -->
<g id="node13" class="node">
<title>[root] google_sql_database_instance.db_instance (expand)</title>
<polygon fill="none" stroke="black" points="1480.5,-252 1232.5,-252 1232.5,-216 1480.5,-216 1480.5,-252"/>
<text text-anchor="middle" x="1356.5" y="-230.3" font-family="Times,serif" font-size="14.00">google_sql_database_instance.db_instance</text>
</g>
<!-- [root] google_sql_database.cloud_sql (expand)&#45;&gt;[root] google_sql_database_instance.db_instance (expand) -->
<g id="edge16" class="edge">
<title>[root] google_sql_database.cloud_sql (expand)&#45;&gt;[root] google_sql_database_instance.db_instance (expand)</title>
<path fill="none" stroke="black" d="M1318.86,-287.7C1324.73,-279.47 1331.87,-269.48 1338.34,-260.42"/>
<polygon fill="black" stroke="black" points="1341.32,-262.28 1344.28,-252.1 1335.62,-258.21 1341.32,-262.28"/>
</g>
<!-- [root] google_sql_database_instance.db_instance (expand)&#45;&gt;[root] provider[&quot;registry.terraform.io/hashicorp/google&quot;] -->
<g id="edge17" class="edge">
<title>[root] google_sql_database_instance.db_instance (expand)&#45;&gt;[root] provider[&quot;registry.terraform.io/hashicorp/google&quot;]</title>
<path fill="none" stroke="black" d="M1339.44,-215.95C1314.13,-190.73 1269.08,-146.2 1264.5,-144 1217.16,-121.3 1091.85,-107.43 990.34,-99.6"/>
<polygon fill="black" stroke="black" points="990.52,-96.11 980.28,-98.84 989.99,-103.09 990.52,-96.11"/>
</g>
<!-- [root] var.password -->
<g id="node15" class="node">
<title>[root] var.password</title>
<polygon fill="none" stroke="black" points="1394.5,-180 1312.5,-180 1312.5,-144 1400.5,-144 1400.5,-174 1394.5,-180"/>
<polyline fill="none" stroke="black" points="1394.5,-180 1394.5,-174 "/>
<polyline fill="none" stroke="black" points="1400.5,-174 1394.5,-174 "/>
<text text-anchor="middle" x="1356.5" y="-158.3" font-family="Times,serif" font-size="14.00">var.password</text>
</g>
<!-- [root] google_sql_database_instance.db_instance (expand)&#45;&gt;[root] var.password -->
<g id="edge18" class="edge">
<title>[root] google_sql_database_instance.db_instance (expand)&#45;&gt;[root] var.password</title>
<path fill="none" stroke="black" d="M1356.5,-215.7C1356.5,-207.98 1356.5,-198.71 1356.5,-190.11"/>
<polygon fill="black" stroke="black" points="1360,-190.1 1356.5,-180.1 1353,-190.1 1360,-190.1"/>
</g>
<!-- [root] var.project -->
<g id="node16" class="node">
<title>[root] var.project</title>
<polygon fill="none" stroke="black" points="784.5,-36 716.5,-36 716.5,0 790.5,0 790.5,-30 784.5,-36"/>
<polyline fill="none" stroke="black" points="784.5,-36 784.5,-30 "/>
<polyline fill="none" stroke="black" points="790.5,-30 784.5,-30 "/>
<text text-anchor="middle" x="753.5" y="-14.3" font-family="Times,serif" font-size="14.00">var.project</text>
</g>
<!-- [root] provider[&quot;registry.terraform.io/hashicorp/google&quot;]&#45;&gt;[root] var.project -->
<g id="edge27" class="edge">
<title>[root] provider[&quot;registry.terraform.io/hashicorp/google&quot;]&#45;&gt;[root] var.project</title>
<path fill="none" stroke="black" d="M823.85,-73.12C812.06,-64.05 797.07,-52.51 783.95,-42.42"/>
<polygon fill="black" stroke="black" points="785.72,-39.37 775.66,-36.04 781.45,-44.92 785.72,-39.37"/>
</g>
<!-- [root] var.region -->
<g id="node17" class="node">
<title>[root] var.region</title>
<polygon fill="none" stroke="black" points="874,-36 809,-36 809,0 880,0 880,-30 874,-36"/>
<polyline fill="none" stroke="black" points="874,-36 874,-30 "/>
<polyline fill="none" stroke="black" points="880,-30 874,-30 "/>
<text text-anchor="middle" x="844.5" y="-14.3" font-family="Times,serif" font-size="14.00">var.region</text>
</g>
<!-- [root] provider[&quot;registry.terraform.io/hashicorp/google&quot;]&#45;&gt;[root] var.region -->
<g id="edge28" class="edge">
<title>[root] provider[&quot;registry.terraform.io/hashicorp/google&quot;]&#45;&gt;[root] var.region</title>
<path fill="none" stroke="black" d="M844.5,-71.7C844.5,-63.98 844.5,-54.71 844.5,-46.11"/>
<polygon fill="black" stroke="black" points="848,-46.1 844.5,-36.1 841,-46.1 848,-46.1"/>
</g>
<!-- [root] var.zone -->
<g id="node18" class="node">
<title>[root] var.zone</title>
<polygon fill="none" stroke="black" points="954.5,-36 898.5,-36 898.5,0 960.5,0 960.5,-30 954.5,-36"/>
<polyline fill="none" stroke="black" points="954.5,-36 954.5,-30 "/>
<polyline fill="none" stroke="black" points="960.5,-30 954.5,-30 "/>
<text text-anchor="middle" x="929.5" y="-14.3" font-family="Times,serif" font-size="14.00">var.zone</text>
</g>
<!-- [root] provider[&quot;registry.terraform.io/hashicorp/google&quot;]&#45;&gt;[root] var.zone -->
<g id="edge29" class="edge">
<title>[root] provider[&quot;registry.terraform.io/hashicorp/google&quot;]&#45;&gt;[root] var.zone</title>
<path fill="none" stroke="black" d="M863.79,-73.12C874.8,-64.05 888.8,-52.51 901.06,-42.42"/>
<polygon fill="black" stroke="black" points="903.31,-45.1 908.8,-36.04 898.86,-39.7 903.31,-45.1"/>
</g>
<!-- [root] output.cloud_sql_connection (expand) -->
<g id="node19" class="node">
<title>[root] output.cloud_sql_connection (expand)</title>
<ellipse fill="none" stroke="black" cx="1653.5" cy="-378" rx="168.97" ry="18"/>
<text text-anchor="middle" x="1653.5" y="-374.3" font-family="Times,serif" font-size="14.00">[root] output.cloud_sql_connection (expand)</text>
</g>
<!-- [root] output.cloud_sql_connection (expand)&#45;&gt;[root] google_sql_database_instance.db_instance (expand) -->
<g id="edge19" class="edge">
<title>[root] output.cloud_sql_connection (expand)&#45;&gt;[root] google_sql_database_instance.db_instance (expand)</title>
<path fill="none" stroke="black" d="M1618.56,-360.29C1564.56,-334.48 1460.87,-284.9 1401.39,-256.46"/>
<polygon fill="black" stroke="black" points="1402.77,-253.24 1392.23,-252.08 1399.75,-259.56 1402.77,-253.24"/>
</g>
<!-- [root] output.cloud_sql_external_ip (expand) -->
<g id="node20" class="node">
<title>[root] output.cloud_sql_external_ip (expand)</title>
<ellipse fill="none" stroke="black" cx="1296.5" cy="-378" rx="169.77" ry="18"/>
<text text-anchor="middle" x="1296.5" y="-374.3" font-family="Times,serif" font-size="14.00">[root] output.cloud_sql_external_ip (expand)</text>
</g>
<!-- [root] output.cloud_sql_external_ip (expand)&#45;&gt;[root] google_sql_database_instance.db_instance (expand) -->
<g id="edge20" class="edge">
<title>[root] output.cloud_sql_external_ip (expand)&#45;&gt;[root] google_sql_database_instance.db_instance (expand)</title>
<path fill="none" stroke="black" d="M1360.12,-361.22C1378.94,-353.26 1397.45,-341.45 1408.5,-324 1417.06,-310.48 1414.55,-302.81 1408.5,-288 1404.01,-277.02 1396.03,-267.08 1387.65,-258.86"/>
<polygon fill="black" stroke="black" points="1389.99,-256.26 1380.25,-252.09 1385.26,-261.42 1389.99,-256.26"/>
</g>
<!-- [root] provider[&quot;registry.terraform.io/hashicorp/google&quot;] (close) -->
<g id="node21" class="node">
<title>[root] provider[&quot;registry.terraform.io/hashicorp/google&quot;] (close)</title>
<ellipse fill="none" stroke="black" cx="871.5" cy="-378" rx="237.46" ry="18"/>
<text text-anchor="middle" x="871.5" y="-374.3" font-family="Times,serif" font-size="14.00">[root] provider[&quot;registry.terraform.io/hashicorp/google&quot;] (close)</text>
</g>
<!-- [root] provider[&quot;registry.terraform.io/hashicorp/google&quot;] (close)&#45;&gt;[root] google_compute_firewall.proxy_firewall (expand) -->
<g id="edge21" class="edge">
<title>[root] provider[&quot;registry.terraform.io/hashicorp/google&quot;] (close)&#45;&gt;[root] google_compute_firewall.proxy_firewall (expand)</title>
<path fill="none" stroke="black" d="M762.52,-361.98C683.8,-351.14 577.13,-336.44 493.88,-324.97"/>
<polygon fill="black" stroke="black" points="494.24,-321.48 483.85,-323.58 493.28,-328.42 494.24,-321.48"/>
</g>
<!-- [root] provider[&quot;registry.terraform.io/hashicorp/google&quot;] (close)&#45;&gt;[root] google_compute_firewall.web_rules (expand) -->
<g id="edge22" class="edge">
<title>[root] provider[&quot;registry.terraform.io/hashicorp/google&quot;] (close)&#45;&gt;[root] google_compute_firewall.web_rules (expand)</title>
<path fill="none" stroke="black" d="M702.96,-365.29C574.43,-355.8 393.09,-341.2 234.5,-324 231.45,-323.67 228.35,-323.32 225.23,-322.97"/>
<polygon fill="black" stroke="black" points="225.53,-319.48 215.2,-321.8 224.72,-326.43 225.53,-319.48"/>
</g>
<!-- [root] provider[&quot;registry.terraform.io/hashicorp/google&quot;] (close)&#45;&gt;[root] google_compute_instance.proxy_instance_eu (expand) -->
<g id="edge23" class="edge">
<title>[root] provider[&quot;registry.terraform.io/hashicorp/google&quot;] (close)&#45;&gt;[root] google_compute_instance.proxy_instance_eu (expand)</title>
<path fill="none" stroke="black" d="M816.28,-360.41C782.95,-350.4 740.25,-337.57 705.06,-327"/>
<polygon fill="black" stroke="black" points="705.93,-323.6 695.35,-324.08 703.92,-330.31 705.93,-323.6"/>
</g>
<!-- [root] provider[&quot;registry.terraform.io/hashicorp/google&quot;] (close)&#45;&gt;[root] google_compute_instance.wordpress_instance_us (expand) -->
<g id="edge24" class="edge">
<title>[root] provider[&quot;registry.terraform.io/hashicorp/google&quot;] (close)&#45;&gt;[root] google_compute_instance.wordpress_instance_us (expand)</title>
<path fill="none" stroke="black" d="M887.32,-359.7C895.07,-351.22 904.54,-340.86 913.02,-331.58"/>
<polygon fill="black" stroke="black" points="915.7,-333.85 919.86,-324.1 910.53,-329.12 915.7,-333.85"/>
</g>
<!-- [root] provider[&quot;registry.terraform.io/hashicorp/google&quot;] (close)&#45;&gt;[root] google_project_service.name (expand) -->
<g id="edge25" class="edge">
<title>[root] provider[&quot;registry.terraform.io/hashicorp/google&quot;] (close)&#45;&gt;[root] google_project_service.name (expand)</title>
<path fill="none" stroke="black" d="M989.54,-362.35C1023.28,-354.51 1058.89,-342.47 1088.5,-324 1123.84,-301.95 1130.29,-289.46 1148.5,-252 1157.97,-232.52 1162.75,-208.38 1165.14,-190.16"/>
<polygon fill="black" stroke="black" points="1168.62,-190.53 1166.29,-180.19 1161.67,-189.72 1168.62,-190.53"/>
</g>
<!-- [root] provider[&quot;registry.terraform.io/hashicorp/google&quot;] (close)&#45;&gt;[root] google_sql_database.cloud_sql (expand) -->
<g id="edge26" class="edge">
<title>[root] provider[&quot;registry.terraform.io/hashicorp/google&quot;] (close)&#45;&gt;[root] google_sql_database.cloud_sql (expand)</title>
<path fill="none" stroke="black" d="M967.77,-361.51C1037.8,-350.24 1132.47,-335.01 1203.92,-323.51"/>
<polygon fill="black" stroke="black" points="1204.53,-326.95 1213.84,-321.91 1203.41,-320.04 1204.53,-326.95"/>
</g>
<!-- [root] root -->
<g id="node22" class="node">
<title>[root] root</title>
<ellipse fill="none" stroke="black" cx="1296.5" cy="-450" rx="47.39" ry="18"/>
<text text-anchor="middle" x="1296.5" y="-446.3" font-family="Times,serif" font-size="14.00">[root] root</text>
</g>
<!-- [root] root&#45;&gt;[root] output.cloud_sql_connection (expand) -->
<g id="edge30" class="edge">
<title>[root] root&#45;&gt;[root] output.cloud_sql_connection (expand)</title>
<path fill="none" stroke="black" d="M1337.8,-440.9C1393.46,-429.99 1493.93,-410.29 1566.6,-396.04"/>
<polygon fill="black" stroke="black" points="1567.53,-399.42 1576.67,-394.07 1566.18,-392.55 1567.53,-399.42"/>
</g>
<!-- [root] root&#45;&gt;[root] output.cloud_sql_external_ip (expand) -->
<g id="edge31" class="edge">
<title>[root] root&#45;&gt;[root] output.cloud_sql_external_ip (expand)</title>
<path fill="none" stroke="black" d="M1296.5,-431.7C1296.5,-423.98 1296.5,-414.71 1296.5,-406.11"/>
<polygon fill="black" stroke="black" points="1300,-406.1 1296.5,-396.1 1293,-406.1 1300,-406.1"/>
</g>
<!-- [root] root&#45;&gt;[root] provider[&quot;registry.terraform.io/hashicorp/google&quot;] (close) -->
<g id="edge32" class="edge">
<title>[root] root&#45;&gt;[root] provider[&quot;registry.terraform.io/hashicorp/google&quot;] (close)</title>
<path fill="none" stroke="black" d="M1253.8,-441.97C1189.28,-431.34 1065,-410.87 975.64,-396.15"/>
<polygon fill="black" stroke="black" points="976.17,-392.69 965.74,-394.52 975.04,-399.6 976.17,-392.69"/>
</g>
</g>
</svg>
